<svg id="visual" viewBox="0 0 960 300" width="960" height="300" xmlns="http://www.w3.org/2000/svg" xmlns:xlink="http://www.w3.org/1999/xlink" version="1.1"><rect x="0" y="0" width="960" height="300" fill="#202731"></rect><path d="M0 236L14.5 235.3C29 234.7 58 233.3 87.2 233.7C116.3 234 145.7 236 174.8 226.8C204 217.7 233 197.3 262 185.2C291 173 320 169 349 166C378 163 407 161 436.2 169.8C465.3 178.7 494.7 198.3 523.8 209C553 219.7 582 221.3 611 220.3C640 219.3 669 215.7 698 205.7C727 195.7 756 179.3 785.2 183.2C814.3 187 843.7 211 872.8 223.2C902 235.3 931 235.7 945.5 235.8L960 236L960 0L945.5 0C931 0 902 0 872.8 0C843.7 0 814.3 0 785.2 0C756 0 727 0 698 0C669 0 640 0 611 0C582 0 553 0 523.8 0C494.7 0 465.3 0 436.2 0C407 0 378 0 349 0C320 0 291 0 262 0C233 0 204 0 174.8 0C145.7 0 116.3 0 87.2 0C58 0 29 0 14.5 0L0 0Z" fill="#fa7268"></path><path d="M0 186L14.5 172.3C29 158.7 58 131.3 87.2 123.2C116.3 115 145.7 126 174.8 132.2C204 138.3 233 139.7 262 143C291 146.3 320 151.7 349 150.8C378 150 407 143 436.2 141.5C465.3 140 494.7 144 523.8 139.2C553 134.3 582 120.7 611 124.8C640 129 669 151 698 159.7C727 168.3 756 163.7 785.2 162.2C814.3 160.7 843.7 162.3 872.8 159.7C902 157 931 150 945.5 146.5L960 143L960 0L945.5 0C931 0 902 0 872.8 0C843.7 0 814.3 0 785.2 0C756 0 727 0 698 0C669 0 640 0 611 0C582 0 553 0 523.8 0C494.7 0 465.3 0 436.2 0C407 0 378 0 349 0C320 0 291 0 262 0C233 0 204 0 174.8 0C145.7 0 116.3 0 87.2 0C58 0 29 0 14.5 0L0 0Z" fill="#eb5967"></path><path d="M0 129L14.5 122.2C29 115.3 58 101.7 87.2 103.3C116.3 105 145.7 122 174.8 122.3C204 122.7 233 106.3 262 106C291 105.7 320 121.3 349 127.2C378 133 407 129 436.2 128.7C465.3 128.3 494.7 131.7 523.8 127.7C553 123.7 582 112.3 611 105.5C640 98.7 669 96.3 698 99.3C727 102.3 756 110.7 785.2 106.5C814.3 102.3 843.7 85.7 872.8 78.7C902 71.7 931 74.3 945.5 75.7L960 77L960 0L945.5 0C931 0 902 0 872.8 0C843.7 0 814.3 0 785.2 0C756 0 727 0 698 0C669 0 640 0 611 0C582 0 553 0 523.8 0C494.7 0 465.3 0 436.2 0C407 0 378 0 349 0C320 0 291 0 262 0C233 0 204 0 174.8 0C145.7 0 116.3 0 87.2 0C58 0 29 0 14.5 0L0 0Z" fill="#da3f67"></path><path d="M0 52L14.5 54.8C29 57.7 58 63.3 87.2 68.3C116.3 73.3 145.7 77.7 174.8 74.2C204 70.7 233 59.3 262 52.8C291 46.3 320 44.7 349 42.5C378 40.3 407 37.7 436.2 40.5C465.3 43.3 494.7 51.7 523.8 59.3C553 67 582 74 611 71.7C640 69.3 669 57.7 698 59C727 60.3 756 74.7 785.2 76.2C814.3 77.7 843.7 66.3 872.8 62.2C902 58 931 61 945.5 62.5L960 64L960 0L945.5 0C931 0 902 0 872.8 0C843.7 0 814.3 0 785.2 0C756 0 727 0 698 0C669 0 640 0 611 0C582 0 553 0 523.8 0C494.7 0 465.3 0 436.2 0C407 0 378 0 349 0C320 0 291 0 262 0C233 0 204 0 174.8 0C145.7 0 116.3 0 87.2 0C58 0 29 0 14.5 0L0 0Z" fill="#c62368"></path></svg>